<svg width="580" height="400" xmlns="http://www.w3.org/2000/svg" stroke="null" style="vector-effect: non-scaling-stroke;">
 <!-- Created with Method Draw - http://github.com/duopixel/Method-Draw/ -->
 <g stroke="null">
  <title stroke="null">Layer 1</title>
  <path stroke="#000" id="svg_3" d="m292.332978,98.001482c-57.185614,0 -103.499387,45.78293 -103.499387,102.313089c0,56.491172 46.313773,102.300093 103.499387,102.300093c57.133029,0 103.473095,-45.808921 103.473095,-102.300093c0.013146,-56.530159 -46.313774,-102.313089 -103.473095,-102.313089zm0,-6.848596c7.269803,0 13.146118,-5.821957 13.146118,-13.008435l0,-63.040873c-0.026292,-7.186477 -5.889461,-12.995438 -13.146118,-12.995438c-7.269803,0 -13.159264,5.834952 -13.146118,13.021429l0,63.027878c0,7.160487 5.876315,12.995439 13.146118,12.995439zm42.238477,8.291089c1.643265,0.688759 3.35226,0.987654 5.021817,1.000649c5.179571,0 10.056781,-3.027937 12.160159,-8.031181l24.399196,-58.258551c2.760684,-6.64067 -0.40753,-14.230006 -7.11205,-16.972043c-6.717667,-2.742038 -14.408146,0.402858 -17.195123,7.030532l-24.386049,58.271547c-2.773831,6.627674 0.40753,14.230005 7.11205,16.959047zm35.823172,23.664694c2.563493,2.521115 5.928899,3.807664 9.294305,3.807664s6.730813,-1.273553 9.294306,-3.807664l45.091185,-44.613341c5.140132,-5.068221 5.126986,-13.294333 0,-18.388545c-5.153279,-5.068221 -13.474771,-5.068221 -18.601757,0.02599l-45.078039,44.587351c-5.140132,5.081216 -5.140132,13.307329 0,18.388545zm23.965373,35.399575c2.077087,5.003244 6.980589,8.018186 12.133867,8.018186c1.669557,0 3.378552,-0.324886 5.034963,-1.013644l58.894609,-24.13253c6.717666,-2.742037 9.899027,-10.357364 7.11205,-16.985038s-10.46431,-9.77257 -17.181976,-7.017537l-58.907755,24.13253c-6.704521,2.755033 -9.872735,10.37036 -7.085758,16.998033zm85.30516,28.732915l-63.771819,0.012996c-7.256657,0 -13.146118,5.821956 -13.119825,13.008434c0,7.186477 5.876314,12.982443 13.119825,12.982443l63.784965,-0.025991c7.269803,0 13.132972,-5.834952 13.132972,-12.995438c0,-7.186478 -5.889461,-13.008435 -13.146118,-12.982444zm-9.17599,71.838785l-58.920901,-24.093543c-6.730813,-2.755033 -14.421292,0.389863 -17.181977,7.030532c-2.773831,6.640669 0.40753,14.243001 7.11205,16.998034l58.920901,24.093543c1.656411,0.662768 3.365406,0.974658 5.034963,0.974658c5.166425,0 10.056781,-3.014941 12.16016,-8.018185c2.760684,-6.640669 -0.433822,-14.255997 -7.125196,-16.985039zm-81.427056,18.362555c-5.140132,-5.081216 -13.448478,-5.081216 -18.58861,0.012996c-5.140133,5.068221 -5.126986,13.281338 0,18.362554l45.143769,44.56136c2.563493,2.53411 5.915753,3.807663 9.281159,3.807663s6.743959,-1.273553 9.307452,-3.807663c5.140132,-5.094212 5.11384,-13.320325 0,-18.388546l-45.14377,-44.548364zm-37.21666,30.708222c-2.773831,-6.640669 -10.46431,-9.77257 -17.181976,-7.030533c-6.70452,2.755033 -9.885881,10.357365 -7.098904,16.998034l24.45178,58.219566c2.090233,5.003243 6.980589,8.018185 12.160159,8.018185c1.682703,0 3.391698,-0.31189 5.034963,-0.987653c6.717667,-2.742038 9.885881,-10.357365 7.098904,-17.011029l-24.464926,-58.20657zm-59.381015,1.33853c-7.269803,0 -13.146118,5.821957 -13.146118,12.995439l0.052585,63.040873c0,7.186477 5.902607,12.982443 13.146118,12.982443c7.269803,0 13.146118,-5.821957 13.119825,-12.995439l-0.039438,-63.053868c0,-7.147491 -5.902607,-12.982443 -13.132972,-12.969448zm-42.277916,-8.265099c-6.70452,-2.729042 -14.381853,0.402859 -17.16883,7.056523l-24.34661,58.258552c-2.760685,6.640669 0.433822,14.243001 7.138342,16.985038c1.643265,0.675763 3.339114,0.987654 5.021817,0.987654c5.153278,0 10.05678,-3.040933 12.147013,-8.044177l24.359757,-58.284543c2.773831,-6.627673 -0.433822,-14.217009 -7.151489,-16.959047zm-35.836317,-23.612712c-5.153279,-5.081217 -13.474771,-5.055226 -18.601757,0.025991l-45.038601,44.613341c-5.140132,5.094212 -5.11384,13.294334 0.026292,18.388546c2.563494,2.521115 5.915754,3.794668 9.28116,3.794668c3.378552,0 6.743958,-1.273553 9.307451,-3.807664l45.051747,-44.626336c5.11384,-5.081217 5.11384,-13.30733 -0.026292,-18.388546zm-23.97852,-35.360589c-2.800123,-6.614678 -10.477456,-9.759574 -17.181976,-7.017537l-58.881463,24.184512c-6.717666,2.755033 -9.88588,10.37036 -7.098903,16.998034c2.103379,5.003243 6.980588,8.00519 12.147013,8.00519c1.669557,0 3.391698,-0.311891 5.034963,-0.987654l58.881463,-24.184511c6.691374,-2.781024 9.872734,-10.383355 7.098903,-16.998034zm-8.492392,-41.741349c0,-7.186477 -5.876315,-12.982443 -13.146118,-12.982443l-63.771819,0.077973c-7.269803,0 -13.159264,5.821956 -13.132971,13.008434c0.013146,7.160486 5.902607,12.995438 13.146118,12.969447l63.784964,-0.077972c7.256657,0 13.146118,-5.847948 13.119826,-12.995439zm-67.781384,-58.778369l58.960339,24.041562c1.643265,0.688758 3.339114,0.987653 5.008671,0.987653c5.166424,0 10.069926,-3.014942 12.160159,-8.031181c2.786977,-6.640669 -0.420676,-14.255996 -7.151488,-16.972043l-58.934047,-24.041562c-6.717667,-2.729042 -14.395,0.415854 -17.16883,7.043528c-2.786978,6.640669 0.433821,14.21701 7.125196,16.972043zm81.413909,-18.427532c2.563493,2.50812 5.902607,3.781673 9.268013,3.781673s6.743958,-1.273553 9.320597,-3.833655c5.140133,-5.055225 5.11384,-13.294334 -0.052584,-18.37555l-45.143769,-44.496382c-5.126986,-5.068221 -13.474771,-5.04223 -18.588611,0.038986c-5.140132,5.068221 -5.11384,13.307329 0.026292,18.37555l45.170062,44.509378zm37.164075,-30.760203c2.103379,4.990248 6.993735,7.992194 12.133867,7.992194c1.682703,0 3.391699,-0.324886 5.04811,-1.000648c6.70452,-2.755033 9.899026,-10.370361 7.098903,-16.985039l-24.504364,-58.20657c-2.786977,-6.627673 -10.490602,-9.759574 -17.195122,-7.004541c-6.70452,2.768028 -9.872735,10.383355 -7.085758,16.998034l24.504364,58.20657z" stroke-opacity="null" stroke-width="0" fill="#ffd800" fill-opacity="0.6"/>
 </g>
</svg>